<svg width="41" height="33" viewBox="0 0 41 33" fill="none" xmlns="http://www.w3.org/2000/svg">
<path d="M9.6123 11.208L9.87793 11.3574C11.1286 12.0658 12.2409 12.8128 13.2148 13.5986C14.1999 14.3844 14.958 15.2699 15.4893 16.2549C15.8988 17.0518 16.1035 17.9427 16.1035 18.9277V19.0771C16.1035 19.2985 16.0869 19.5254 16.0537 19.7578C15.8877 21.2298 15.3509 22.4749 14.4434 23.4932C13.5358 24.5003 12.3682 25.2308 10.9404 25.6846C9.96647 25.9945 8.92057 26.1494 7.80273 26.1494H7.4873C7.09993 26.1494 6.69596 26.1217 6.27539 26.0664C4.54883 25.8783 3.05469 25.4023 1.79297 24.6387L3.96777 20.9033C4.79785 21.4235 5.74414 21.7445 6.80664 21.8662C7.0612 21.8994 7.31022 21.916 7.55371 21.916H7.70312C8.67708 21.916 9.58464 21.7113 10.4258 21.3018C11.2669 20.8812 11.7373 20.2337 11.8369 19.3594L11.8535 19.1436V19.0938C11.8535 18.64 11.7152 18.2028 11.4385 17.7822C11.1618 17.3506 10.7523 16.9079 10.21 16.4541C9.67871 16.0003 9.07552 15.5687 8.40039 15.1592C8.13477 14.9932 7.86361 14.8327 7.58691 14.6777C7.25488 14.4785 6.91732 14.2848 6.57422 14.0967L6.3252 13.9307C5.62793 13.5433 4.9362 13.1227 4.25 12.6689C3.57487 12.2152 2.96615 11.7005 2.42383 11.125C1.88151 10.5384 1.46647 9.86882 1.17871 9.11621C0.946289 8.54069 0.830078 7.9043 0.830078 7.20703V7.10742C0.841146 6.9082 0.857747 6.70345 0.879883 6.49316C1.03483 5.12077 1.53288 3.95312 2.37402 2.99023C3.21517 2.01628 4.28874 1.30241 5.59473 0.848633C6.51335 0.516602 7.4873 0.350586 8.5166 0.350586H8.79883C9.10872 0.350586 9.42969 0.372721 9.76172 0.416992C11.5547 0.605143 13.0433 1.1696 14.2275 2.11035C14.3825 2.2321 14.5319 2.36491 14.6758 2.50879L12.501 6.24414C12.2243 5.91211 11.9531 5.64095 11.6875 5.43066C10.9902 4.92155 10.2044 4.61719 9.33008 4.51758C9.15299 4.49544 8.98145 4.48438 8.81543 4.48438H8.69922C7.86914 4.48438 7.08333 4.71126 6.3418 5.16504C5.61133 5.60775 5.20182 6.23861 5.11328 7.05762C5.10221 7.12402 5.09668 7.19596 5.09668 7.27344V7.32324C5.09668 7.73275 5.23503 8.12012 5.51172 8.48535C5.78841 8.85059 6.22005 9.22135 6.80664 9.59766C7.4043 9.97396 8.09603 10.3779 8.88184 10.8096L9.01465 10.8926L9.6123 11.208ZM22.5449 15.375V32.375H18.2949V0.5H32.1074V4.75H22.5449V11.125H31.0449V15.375H22.5449Z" fill="black"/>
<path d="M36.9551 26C36.0697 26 35.3171 25.6901 34.6973 25.0703C34.0775 24.4505 33.7676 23.6979 33.7676 22.8125C33.7676 21.9271 34.0775 21.1745 34.6973 20.5547C35.3171 19.9349 36.0697 19.625 36.9551 19.625C37.8405 19.625 38.5931 19.9349 39.2129 20.5547C39.8327 21.1745 40.1426 21.9271 40.1426 22.8125C40.1426 23.6979 39.8327 24.4505 39.2129 25.0703C38.5931 25.6901 37.8405 26 36.9551 26Z" fill="#D800A6"/>
</svg>
